<svg xmlns="http://www.w3.org/2000/svg" xmlns:xlink="http://www.w3.org/1999/xlink" fill="none" version="1.1" width="32" height="32" viewBox="0 0 32 32"><defs><clipPath id="master_svg0_20_02481"><rect x="0" y="0" width="32" height="32" rx="0"/></clipPath></defs><g style="mix-blend-mode:passthrough" clip-path="url(#master_svg0_20_02481)"><g style="mix-blend-mode:passthrough"><path d="M15.4037078125,1.4740922470703124C15.7790078125,1.2864070470703124,16.220907812500002,1.2864070470703124,16.596207812499998,1.4740922470703124C16.596207812499998,1.4740922470703124,29.9295078125,8.140758247070313,29.9295078125,8.140758247070313C30.3813078125,8.366608247070314,30.6666078125,8.828298247070313,30.6666078125,9.333328247070312C30.6666078125,9.838358247070312,30.3813078125,10.300048247070313,29.9295078125,10.525898247070312C29.9295078125,10.525898247070312,16.596207812499998,17.192528247070314,16.596207812499998,17.192528247070314C16.220907812500002,17.380228247070313,15.7790078125,17.380228247070313,15.4037078125,17.192528247070314C15.4037078125,17.192528247070314,2.0703478125,10.525898247070312,2.0703478125,10.525898247070312C1.6186358125,10.300048247070313,1.3332998765,9.838358247070312,1.3332998765,9.333328247070312C1.3332998765,8.828298247070313,1.6186358125,8.366608247070314,2.0703478125,8.140758247070313C2.0703478125,8.140758247070313,15.4037078125,1.4740922470703124,15.4037078125,1.4740922470703124C15.4037078125,1.4740922470703124,15.4037078125,1.4740922470703124,15.4037078125,1.4740922470703124ZM5.6480578125,9.333328247070312C5.6480578125,9.333328247070312,15.9999078125,14.509328247070313,15.9999078125,14.509328247070313C15.9999078125,14.509328247070313,26.3519078125,9.333328247070312,26.3519078125,9.333328247070312C26.3519078125,9.333328247070312,15.9999078125,4.157368247070313,15.9999078125,4.157368247070313C15.9999078125,4.157368247070313,5.6480578125,9.333328247070312,5.6480578125,9.333328247070312C5.6480578125,9.333328247070312,5.6480578125,9.333328247070312,5.6480578125,9.333328247070312ZM1.4740638125,15.403728247070312C1.8033828125,14.745028247070312,2.6042778125,14.478128247070313,3.2629178125,14.807428247070312C3.2629178125,14.807428247070312,15.9999078125,21.176028247070313,15.9999078125,21.176028247070313C15.9999078125,21.176028247070313,28.7370078125,14.807428247070312,28.7370078125,14.807428247070312C29.3957078125,14.478128247070313,30.1966078125,14.745028247070312,30.5258078125,15.403728247070312C30.8551078125,16.062428247070315,30.5882078125,16.86322824707031,29.9295078125,17.192528247070314C29.9295078125,17.192528247070314,16.596207812499998,23.859228247070313,16.596207812499998,23.859228247070313C16.220907812500002,24.046928247070312,15.7790078125,24.046928247070312,15.4037078125,23.859228247070313C15.4037078125,23.859228247070313,2.0703478125,17.192528247070314,2.0703478125,17.192528247070314C1.4117105125,16.86322824707031,1.1447448125,16.062428247070315,1.4740638125,15.403728247070312C1.4740638125,15.403728247070312,1.4740638125,15.403728247070312,1.4740638125,15.403728247070312ZM1.4740638125,22.070428247070314C1.8033828125,21.41172824707031,2.6042778125,21.14482824707031,3.2629178125,21.47412824707031C3.2629178125,21.47412824707031,15.9999078125,27.842628247070312,15.9999078125,27.842628247070312C15.9999078125,27.842628247070312,28.7370078125,21.47412824707031,28.7370078125,21.47412824707031C29.3957078125,21.14482824707031,30.1966078125,21.41172824707031,30.5258078125,22.070428247070314C30.8551078125,22.729028247070314,30.5882078125,23.529828247070313,29.9295078125,23.859228247070313C29.9295078125,23.859228247070313,16.596207812499998,30.52582824707031,16.596207812499998,30.52582824707031C16.220907812500002,30.71362824707031,15.7790078125,30.71362824707031,15.4037078125,30.52582824707031C15.4037078125,30.52582824707031,2.0703478125,23.859228247070313,2.0703478125,23.859228247070313C1.4117105125,23.529828247070313,1.1447448125,22.729028247070314,1.4740638125,22.070428247070314C1.4740638125,22.070428247070314,1.4740638125,22.070428247070314,1.4740638125,22.070428247070314Z" fill-rule="evenodd" fill="#000000" fill-opacity="1"/></g></g></svg>