<svg xmlns="http://www.w3.org/2000/svg" fill="none" version="1.1"
     width="178.5372314453125" height="222.01431274414062" viewBox="0 0 178.5372314453125 222.01431274414062">
    <g style="mix-blend-mode:passthrough">
        <g style="mix-blend-mode:passthrough">
            <path d="M22.5,21.743896484375L36.184,21.743896484375L36.184,26.743896484375L22.5,26.743896484375Q19.162,26.743896484375,16.0583,27.972596484375Q12.6884,29.306716484375002,10.1256,31.869496484375Q7.56282,34.432296484375,6.2287,37.802196484375Q5,40.905896484375,5,44.243896484375L5,174.054896484375Q5,177.392896484375,6.2287,180.496896484375Q7.56282,183.866896484375,10.1256,186.429896484375Q12.6884,188.992896484375,16.0583,190.326896484375Q19.162,191.554896484375,22.5,191.554896484375L56.1031,191.554896484375L56.1031,196.554896484375L22.5,196.554896484375Q18.2082,196.554896484375,14.2179,194.975896484375Q9.88517,193.259896484375,6.5901,189.964896484375Q3.29504,186.669896484375,1.57976,182.337896484375Q0,178.346896484375,0,174.054896484375L0,44.243896484375Q0,39.952196484375,1.57976,35.961796484375Q3.29505,31.629036484375,6.5901,28.333996484375Q9.88515,25.038946484375,14.2179,23.323656484375Q18.2083,21.743896484375,22.5,21.743896484375ZM107.104,196.554896484375L124.574,196.554896484375Q128.866,196.554896484375,132.857,194.975896484375Q137.189,193.259896484375,140.484,189.964896484375Q143.779,186.669896484375,145.495,182.337896484375Q147.074,178.346896484375,147.074,174.054896484375L147.074,138.18689648437498L142.074,138.18689648437498L142.074,174.054896484375Q142.074,177.393896484375,140.846,180.496896484375Q139.512,183.866896484375,136.949,186.429896484375Q134.386,188.992896484375,131.016,190.326896484375Q127.912,191.554896484375,124.574,191.554896484375L107.104,191.554896484375L107.104,196.554896484375Z"
                  fill-rule="evenodd" fill="#000000" fill-opacity="1"/>
        </g>
        <g style="mix-blend-mode:passthrough">
            <path d="M46.2414514453125,45.6359C34.5357014453125,71.4963,36.0021914453125,86.399,51.7863314453125,97.9651C67.5704314453125,109.531,86.5954314453125,106.18,103.8459314453125,97.9651C121.0964314453125,89.7506,100.7654314453125,111.047,85.3632314453125,116.828C97.99303144531251,116.828,106.4062314453125,111.971,113.0872314453125,109.222C117.0321314453125,107.599,116.6674314453125,108.529,116.2620314453125,109.563C115.9808314453125,110.28,115.6799314453125,111.047,116.7838314453125,111.047C117.9052314453125,111.047,119.6399314453125,109.941,121.1503314453125,108.978C123.2701314453125,107.627,124.9481314453125,106.557,123.8688314453125,109.222C124.8987314453125,111.663,129.0269314453125,106.76,132.5247314453125,102.605C134.2583314453125,100.546,135.8370314453125,98.6708,136.8067314453125,97.9651C143.1502314453125,100.536,136.2079314453125,115.208,132.1861314453125,122C140.5032314453125,122,160.21823144531248,108.309,168.2272314453125,94.3142C176.2362314453125,80.3192,185.1702314453125,62.9776,171.3082314453125,45.6359C163.1972314453125,35.4899,155.7202314453125,38.4658,146.9622314453125,41.9511C140.7522314453125,44.4228,133.8975314453125,47.1508,125.7171314453125,45.6359C116.4758314453125,38.03,134.0343314453125,12.4738,151.59323144531248,0C121.0964314453125,5.17207,111.8551314453125,8.21446,96.7608314453125,15.8205C81.6666314453125,23.4264,93.9884314453125,10.9526,103.8459314453125,5.17207C83.2069314453125,9.43142,57.9472314453125,19.7756,46.2414514453125,45.6359Z"
                  fill="#FF9238" fill-opacity="1"/>
        </g>
        <g style="mix-blend-mode:passthrough"
           transform="matrix(0.9950668811798096,-0.09857118129730225,0.0995815098285675,0.9950929880142212,-10.593099128045651,6.44519397408294)">
            <path d="M60.95376005859375,132.40384208984375C59.79985605859375,137.27584208984376,59.84353055859375,139.73414208984374,60.07280805859375,152.63944208984375C60.08913105859375,153.55824208984376,60.10639605859375,154.53004208984373,60.12423605859375,155.55934208984377Q60.39265205859375,171.04684208984375,60.32501105859375,222.56964208984374Q97.82841005859375,183.53944208984376,108.00251005859374,171.81644208984375C118.17651005859375,160.09344208984373,118.88421005859375,159.04124208984376,121.29391005859375,154.24544208984375C120.65211005859375,154.24544208984375,120.06371005859376,154.21354208984374,119.51381005859375,154.18374208984375C117.31091005859375,154.06434208984376,115.72551005859376,153.97834208984375,113.79721005859375,156.11044208984376C112.13141005859376,157.95234208984374,106.20021005859374,163.30414208984377,101.48131005859375,168.89924208984377C96.76241005859376,174.49424208984374,90.17891005859374,179.64164208984374,88.30481005859374,180.57414208984375C84.55641005859376,182.43914208984376,84.85841005859375,177.37384208984375,85.58191005859375,175.48504208984374C86.30551005859375,173.59624208984377,95.05561005859374,150.51544208984376,98.53621005859375,147.05184208984375C100.60931005859375,144.98874208984375,108.85681005859375,144.91424208984375,115.81011005859375,144.85134208984374C120.53051005859375,144.80874208984375,124.65451005859374,144.77144208984376,125.84541005859376,144.12104208984374C127.71961005859374,141.72314208984375,130.12921005859374,139.05884208984375,131.46791005859376,132.66444208984376C128.35251005859374,133.33844208984374,120.23451005859374,133.19404208984375,112.66111005859375,133.05944208984374C105.26491005859376,132.92784208984375,98.38801005859375,132.80554208984375,97.19751005859375,133.46374208984375C95.87181005859375,134.19664208984375,87.84771005859375,154.33504208984374,80.71501005859375,172.23634208984376C74.88261005859376,186.87414208984376,69.64626005859375,200.01614208984375,69.15561005859375,199.82914208984374C68.67082005859375,199.64444208984375,73.49121005859375,186.69014208984373,78.90921005859374,172.12944208984374C85.68101005859376,153.93094208984374,93.38641005859375,133.22314208984375,92.83471005859374,131.80164208984374C91.84151005859376,129.24284208984375,70.90191005859376,114.29348208984375,67.03004005859376,109.34564208984375C64.17306005859375,114.67944208984375,64.07611005859376,118.14473208984376,63.99515005859375,121.03804208984374C63.98862005859375,121.27134208984376,63.98220005859375,121.50094208984375,63.97444005859375,121.72754208984375C65.20104005859375,124.83984208984376,82.61741005859375,136.50544208984374,83.06121005859376,141.38384208984377C83.50501005859375,146.26214208984373,75.23271005859375,168.66544208984374,73.88531005859375,171.38104208984376C72.53791005859375,174.09674208984376,70.26071005859374,178.28944208984376,68.58244005859375,174.46814208984375C67.74330005859375,172.55744208984373,66.76111005859374,163.58964208984375,66.73815005859375,156.28514208984376C66.71518005859375,148.98074208984374,65.60457005859375,141.09034208984374,65.51070005859376,138.61414208984374C65.37493005859375,135.03214208984375,63.42117005859375,134.45154208984374,60.95376005859375,132.40384208984375Z"
                  fill="#63BEFF" fill-opacity="1"/>
        </g>
    </g>
</svg>