<svg xmlns="http://www.w3.org/2000/svg" xmlns:xlink="http://www.w3.org/1999/xlink" fill="none" version="1.1" width="24" height="24" viewBox="0 0 24 24"><defs><clipPath id="master_svg0_241_04308"><rect x="0" y="0" width="24" height="24" rx="0"/></clipPath></defs><g clip-path="url(#master_svg0_241_04308)"><g><path d="M2,8.99999954410553L5,8.99999954410553L5,21.00003954410553L2,21.00003954410553C1.447715,21.00003954410553,1,20.55223954410553,1,20.00003954410553L1,9.99999954410553C1,9.44770954410553,1.447715,8.99999954410553,2,8.99999954410553ZM7.293,7.70699954410553L13.693,1.3069995441055298C13.8689,1.1306284441055299,14.1477,1.1105881441055299,14.347,1.25999964410553L15.2,1.8999995441055297C15.6844,2.2636695441055297,15.9026,2.88300954410553,15.753,3.4699995441055296L14.6,7.999999544105529L21,7.999999544105529C22.1046,7.999999544105529,23,8.895429544105529,23,9.99999954410553L23,12.10403954410553C23.0003,12.36533954410553,22.9493,12.62423954410553,22.85,12.86603954410553L19.755,20.38103954410553C19.6006,20.75573954410553,19.2353,21.00013954410553,18.83,21.00003954410553L8,21.00003954410553C7.44772,21.00003954410553,7,20.55223954410553,7,20.00003954410553L7,8.413999544105529C7.00006,8.148809544105529,7.10545,7.89448954410553,7.293,7.70699954410553Z" fill="#FFFFFF" fill-opacity="1"/></g></g></svg>