<svg xmlns="http://www.w3.org/2000/svg" fill="none" version="1.1" width="27" height="18" viewBox="0 0 27 18"><g style="mix-blend-mode:passthrough"><g style="mix-blend-mode:passthrough"><rect x="1" y="1" width="21" height="16" rx="1" fill-opacity="0" stroke-opacity="1" stroke="#838383" fill="none" stroke-width="2"/></g><g style="mix-blend-mode:passthrough"><path d="M7.75977,13.5683C9.559899999999999,13.5683,10.60807,12.5495,10.60807,10.0462L10.60807,5.859999999999999L9.1888,5.859999999999999L9.1888,10.17641C9.1888,11.75518,8.61914,12.289,7.75977,12.289C6.887370000000001,12.289,6.34701,11.75518,6.34701,10.17641L6.34701,5.859999999999999L4.878906,5.859999999999999L4.878906,10.0462C4.878906,12.5495,5.9401,13.5683,7.75977,13.5683ZM12.4082,13.36L13.88932,13.36L13.88932,10.65167L14.8789,10.65167C16.467399999999998,10.65167,17.7402,9.8932,17.7402,8.19724C17.7402,6.44268,16.4772,5.859999999999999,14.8398,5.859999999999999L12.4082,5.859999999999999L12.4082,13.36ZM13.88932,9.48305L13.88932,7.04164L14.7292,7.04164C15.748,7.04164,16.2884,7.33135,16.2884,8.19724C16.2884,9.0501,15.8001,9.48305,14.778,9.48305L13.88932,9.48305Z" fill="#838383" fill-opacity="1"/></g></g></svg>