<svg xmlns="http://www.w3.org/2000/svg" fill="none" version="1.1" width="556"
     height="253.41387939453125" viewBox="0 0 556 253.41387939453125">
    <defs>
        <filter id="master_svg0_9_06850/9_06828/20_02550" filterUnits="objectBoundingBox"
                color-interpolation-filters="sRGB" x="-20" y="-16" width="180" height="162">
            <feFlood flood-opacity="0" result="BackgroundImageFix"/>
            <feColorMatrix in="SourceAlpha" type="matrix" values="0 0 0 0 0 0 0 0 0 0 0 0 0 0 0 0 0 0 127 0"/>
            <feOffset dy="4" dx="0"/>
            <feGaussianBlur stdDeviation="5"/>
            <feColorMatrix type="matrix"
                           values="0 0 0 0 0.6488000154495239 0 0 0 0 0.37365567684173584 0 0 0 0 0.14643415808677673 0 0 0 1 0"/>
            <feBlend mode="normal" in2="BackgroundImageFix" result="effect1_dropShadow"/>
            <feBlend mode="normal" in="SourceGraphic" in2="effect1_dropShadow" result="shape"/>
        </filter>
        <filter id="master_svg1_9_06850/9_06828/20_02551" filterUnits="objectBoundingBox"
                color-interpolation-filters="sRGB" x="-20" y="-16" width="111.51612854003906"
                height="153.23858642578125">
            <feFlood flood-opacity="0" result="BackgroundImageFix"/>
            <feColorMatrix in="SourceAlpha" type="matrix" values="0 0 0 0 0 0 0 0 0 0 0 0 0 0 0 0 0 0 127 0"/>
            <feOffset dy="4" dx="0"/>
            <feGaussianBlur stdDeviation="5"/>
            <feColorMatrix type="matrix"
                           values="0 0 0 0 0.10657663643360138 0 0 0 0 0.2424566000699997 0 0 0 0 0.3391999900341034 0 0 0 1 0"/>
            <feBlend mode="normal" in2="BackgroundImageFix" result="effect1_dropShadow"/>
            <feBlend mode="normal" in="SourceGraphic" in2="effect1_dropShadow" result="shape"/>
        </filter>
        <filter id="master_svg2_9_06850/20_02589" filterUnits="objectBoundingBox" color-interpolation-filters="sRGB"
                x="-20" y="-16" width="389.3125" height="90">
            <feFlood flood-opacity="0" result="BackgroundImageFix"/>
            <feColorMatrix in="SourceAlpha" type="matrix" values="0 0 0 0 0 0 0 0 0 0 0 0 0 0 0 0 0 0 127 0"/>
            <feOffset dy="4" dx="0"/>
            <feGaussianBlur stdDeviation="5"/>
            <feColorMatrix type="matrix"
                           values="0 0 0 0 0.10657663643360138 0 0 0 0 0.2424566000699997 0 0 0 0 0.3391999900341034 0 0 0 1 0"/>
            <feBlend mode="normal" in2="BackgroundImageFix" result="effect1_dropShadow"/>
            <feBlend mode="normal" in="SourceGraphic" in2="effect1_dropShadow" result="shape"/>
        </filter>
    </defs>
    <g style="mix-blend-mode:passthrough">
        <g style="mix-blend-mode:passthrough">
            <g style="mix-blend-mode:passthrough">
                <g style="mix-blend-mode:passthrough">
                    <path d="M22.5,32.743896484375L36.184,32.743896484375L36.184,37.743896484375L22.5,37.743896484375Q19.162,37.743896484375,16.0583,38.972596484375Q12.6884,40.306716484375,10.1256,42.869496484375Q7.56282,45.432296484375,6.2287,48.802196484375Q5,51.905896484375,5,55.243896484375L5,185.054896484375Q5,188.392896484375,6.2287,191.496896484375Q7.56282,194.866896484375,10.1256,197.429896484375Q12.6884,199.992896484375,16.0583,201.326896484375Q19.162,202.554896484375,22.5,202.554896484375L56.1031,202.554896484375L56.1031,207.554896484375L22.5,207.554896484375Q18.2082,207.554896484375,14.2179,205.975896484375Q9.88517,204.259896484375,6.5901,200.964896484375Q3.29504,197.669896484375,1.57976,193.337896484375Q0,189.346896484375,0,185.054896484375L0,55.243896484375Q0,50.952196484375,1.57976,46.961796484375Q3.29505,42.629036484375,6.5901,39.333996484375Q9.88515,36.038946484375,14.2179,34.323656484375Q18.2083,32.743896484375,22.5,32.743896484375ZM107.104,207.554896484375L124.574,207.554896484375Q128.866,207.554896484375,132.857,205.975896484375Q137.189,204.259896484375,140.484,200.964896484375Q143.779,197.669896484375,145.495,193.337896484375Q147.074,189.346896484375,147.074,185.054896484375L147.074,149.18689648437498L142.074,149.18689648437498L142.074,185.054896484375Q142.074,188.393896484375,140.846,191.496896484375Q139.512,194.866896484375,136.949,197.429896484375Q134.386,199.992896484375,131.016,201.326896484375Q127.912,202.554896484375,124.574,202.554896484375L107.104,202.554896484375L107.104,207.554896484375Z"
                          fill-rule="evenodd" fill="#000000" fill-opacity="1"/>
                </g>
                <g style="mix-blend-mode:passthrough" filter="url(#master_svg0_9_06850/9_06828/20_02550)">
                    <path d="M46.2414514453125,56.6359C34.5357014453125,82.4963,36.0021914453125,97.399,51.7863314453125,108.9651C67.5704314453125,120.531,86.5954314453125,117.18,103.8459314453125,108.9651C121.0964314453125,100.7506,100.7654314453125,122.047,85.3632314453125,127.828C97.99303144531251,127.828,106.4062314453125,122.971,113.0872314453125,120.222C117.0321314453125,118.599,116.6674314453125,119.529,116.2620314453125,120.563C115.9808314453125,121.28,115.6799314453125,122.047,116.7838314453125,122.047C117.9052314453125,122.047,119.6399314453125,120.941,121.1503314453125,119.978C123.2701314453125,118.627,124.9481314453125,117.557,123.8688314453125,120.222C124.8987314453125,122.663,129.0269314453125,117.76,132.5247314453125,113.605C134.2583314453125,111.546,135.8370314453125,109.6708,136.8067314453125,108.9651C143.1502314453125,111.536,136.2079314453125,126.208,132.1861314453125,133C140.5032314453125,133,160.21823144531248,119.309,168.2272314453125,105.3142C176.2362314453125,91.3192,185.1702314453125,73.9776,171.3082314453125,56.6359C163.1972314453125,46.4899,155.7202314453125,49.4658,146.9622314453125,52.9511C140.7522314453125,55.4228,133.8975314453125,58.1508,125.7171314453125,56.6359C116.4758314453125,49.03,134.0343314453125,23.4738,151.59323144531248,11C121.0964314453125,16.172069999999998,111.8551314453125,19.214460000000003,96.7608314453125,26.8205C81.6666314453125,34.4264,93.9884314453125,21.9526,103.8459314453125,16.172069999999998C83.2069314453125,20.43142,57.9472314453125,30.7756,46.2414514453125,56.6359Z"
                          fill="#FF9238" fill-opacity="1"/>
                </g>
                <g style="mix-blend-mode:passthrough"
                   transform="matrix(0.9950668811798096,-0.09857118129730225,0.0995815098285675,0.9950929880142212,-11.688495736159894,6.499171105926507)"
                   filter="url(#master_svg1_9_06850/9_06828/20_02551)">
                    <path d="M60.95363005859375,143.40674208984376C59.79987405859375,148.27934208984374,59.84354305859375,150.73794208984376,60.07279105859375,163.64494208984377C60.08911305859375,164.56384208984375,60.10637505859375,165.53574208984375,60.12421305859375,166.56524208984376Q60.39259605859375,182.05464208984375,60.32496305859375,233.58464208984375Q97.82371005859375,194.54884208984373,107.99641005859375,182.82434208984375C118.16921005859375,171.09984208984375,118.87681005859375,170.04754208984374,121.28621005859375,165.25114208984377C120.64441005859375,165.25114208984377,120.05611005859376,165.21924208984376,119.50631005859375,165.18944208984374C117.30371005859375,165.06994208984375,115.71851005859375,164.98404208984374,113.79041005859375,167.11644208984376C112.12491005859374,168.95844208984374,106.19431005859374,174.31094208984376,101.47611005859375,179.90674208984376C96.75781005859375,185.50254208984376,90.17511005859375,190.65054208984375,88.30121005859375,191.58314208984376C84.55331005859375,193.44844208984375,84.85531005859374,188.38244208984375,85.57871005859374,186.49344208984377C86.30221005859374,184.60444208984376,95.05121005859375,161.52064208984376,98.53131005859376,158.05654208984376C100.60421005859375,155.99324208984376,108.85061005859376,155.91874208984376,115.80301005859374,155.85584208984375C120.52291005859375,155.81314208984375,124.64641005859374,155.77594208984374,125.83711005859375,155.12544208984374C127.71111005859375,152.72724208984374,130.12041005859373,150.06264208984373,131.45891005859374,143.66744208984375C128.34391005859374,144.34144208984375,120.22691005859375,144.19714208984374,112.65451005859376,144.06244208984376C105.25921005859375,143.93084208984374,98.38321005859375,143.80854208984374,97.19281005859375,144.46684208984374C95.86731005859374,145.19984208984374,87.84421005859375,165.34074208984376,80.71241005859375,183.24424208984374C74.88081005859375,197.88394208984374,69.64504005859375,211.02754208984373,69.15445005859375,210.84064208984375C68.66972005859375,210.65594208984373,73.48951005859375,197.69994208984374,78.90691005859375,183.13744208984374C85.67781005859375,164.93654208984375,93.38221005859376,144.22624208984377,92.83051005859375,142.80454208984375C91.83751005859375,140.24534208984375,70.90051005859375,125.29410208984375,67.02915005859376,120.34564208984375C64.17253005859375,125.68011208984375,64.07559005859375,129.14585208984374,63.99464005859375,132.03954208984374C63.98812005859375,132.27284208984375,63.98169005859375,132.50254208984376,63.97393005859375,132.72914208984375C65.20038005859375,135.84184208984374,82.61451005859375,147.50894208984374,83.05831005859375,152.38784208984376C83.50201005859375,157.26684208984375,75.23081005859375,179.67294208984376,73.88361005859375,182.38894208984374C72.53631005859376,185.10494208984375,70.25941005859374,189.29814208984374,68.58136005859375,185.47634208984374C67.74232005859375,183.56544208984374,66.76025005859375,174.59654208984375,66.73730005859375,167.29114208984376C66.71433005859375,159.98574208984374,65.60386005859375,152.09434208984374,65.51001005859375,149.61784208984375C65.37425005859374,146.03544208984374,63.42073005859375,145.45474208984376,60.95363005859375,143.40674208984376Z"
                          fill="#63BEFF" fill-opacity="1"/>
                </g>
            </g>
            <g style="mix-blend-mode:passthrough">
                <path d="M201.03518125,129.0625Q201.03518125,132.332,198.57418125,134.1719Q196.11328125,136,191.89453125,136Q187.32422125,136,184.86328125,134.8164L184.86328125,131.9336Q186.44531125,132.6016,188.30859125,132.9883Q190.17187125,133.375,192.00000125,133.375Q194.98828125,133.375,196.49998125,132.3086Q198.01168125,131.2422,198.01168125,129.332Q198.01168125,128.043,197.47268125,127.2227Q196.94528125,126.4023,195.67968125,125.7109Q194.42578125,125.0078,191.85937125,124.1289Q188.27344125,122.8867,186.73828125,121.1875Q185.20312525,119.4883,185.20312525,116.75781Q185.20312525,113.89844,187.42969125,112.19922Q189.66797125,110.5,193.34766125,110.5Q197.17968125,110.5,200.39058125,111.90625L199.46488125,114.50781Q196.27738125,113.17188,193.27734125,113.17188Q190.89844125,113.17188,189.56250125,114.13281Q188.22656125,115.09375,188.22656125,116.79297Q188.22656125,118.08203,188.71875125,118.90234Q189.21094125,119.7227,190.37109125,120.4141Q191.54297125,121.1055,193.95703125,121.9375Q197.99998125,123.3203,199.51168125,124.9258Q201.03518125,126.5195,201.03518125,129.0625ZM225.44528125,110.5L225.44528125,126.7773Q225.44528125,131.0781,222.78518125,133.5391Q220.13668125,136,215.49608125,136Q210.85548125,136,208.31248125,133.5273Q205.76948125,131.043,205.76948125,126.707L205.76948125,110.5L208.75778125,110.5L208.75778125,126.8711Q208.75778125,130.0117,210.51558125,131.6992Q212.27348125,133.375,215.68358125,133.375Q218.94138125,133.375,220.69918125,131.6875Q222.45708125,130,222.45708125,126.8359L222.45708125,110.5L225.44528125,110.5ZM246.78518125,129.0625Q246.78518125,132.332,244.32418125,134.1719Q241.86328125,136,237.64448125,136Q233.07418125,136,230.61328125,134.8164L230.61328125,131.9336Q232.19528125,132.6016,234.05858125,132.9883Q235.92188125,133.375,237.74998125,133.375Q240.73828125,133.375,242.24998125,132.3086Q243.76168125,131.2422,243.76168125,129.332Q243.76168125,128.043,243.22268125,127.2227Q242.69528125,126.4023,241.42968125,125.7109Q240.17578125,125.0078,237.60938125,124.1289Q234.02348125,122.8867,232.48828125,121.1875Q230.95308125,119.4883,230.95308125,116.75781Q230.95308125,113.89844,233.17968125,112.19922Q235.41798125,110.5,239.09768125,110.5Q242.92968125,110.5,246.14058125,111.90625L245.21488125,114.50781Q242.02738125,113.17188,239.02738125,113.17188Q236.64848125,113.17188,235.31248125,114.13281Q233.97658125,115.09375,233.97658125,116.79297Q233.97658125,118.08203,234.46878125,118.90234Q234.96098125,119.7227,236.12108125,120.4141Q237.29298125,121.1055,239.70708125,121.9375Q243.74998125,123.3203,245.26168125,124.9258Q246.78518125,126.5195,246.78518125,129.0625ZM259.69918125,136L256.71098125000003,136L256.71098125000003,113.16016L248.56638125,113.16016L248.56638125,110.5L267.83208125,110.5L267.83208125,113.16016L259.69918125,113.16016L259.69918125,136ZM279.73828125,136Q275.47268125,136,272.99998125,133.457Q270.52738125,130.9141,270.52738125,126.4023Q270.52738125,121.8555,272.81248125,119.1836Q275.10938125,116.5,278.97658125,116.5Q282.59768125,116.5,284.70708125,118.91406Q286.81628125,121.3164,286.81628125,125.2656L286.81628125,127.1289L273.55078125,127.1289Q273.64448125,130.2344,275.26168125,131.8398Q276.89058124999997,133.4453,279.84378125,133.4453Q282.96098125000003,133.4453,285.99628125,132.1445L285.99628125,134.7461Q284.44918125,135.4141,283.06638125,135.707Q281.69528125,136,279.73828125,136ZM278.94138125,118.94922Q276.62108125,118.94922,275.23828125,120.4961Q273.86718125,122.0312,273.62108125,124.75L283.68748125,124.75Q283.68748125,121.9375,282.45708125,120.4492Q281.22658125,118.94922,278.94138125,118.94922ZM299.55428125000003,136Q295.37128125,136,293.07428125,133.4922Q290.77728125,130.9727,290.77728125,126.3672Q290.77728125,121.6445,293.10928125,119.0781Q295.44128125,116.5,299.74228125,116.5Q301.13628125,116.5,302.51928125,116.80469Q303.91428125,117.09766,304.69928125,117.50781L303.80828125,119.9922Q302.83628125,119.6055,301.68728125,119.3477Q300.55128125,119.0898,299.67228124999997,119.0898Q293.80128125,119.0898,293.80128125,126.332Q293.80128125,129.7656,295.23028125,131.6055Q296.67228124999997,133.4453,299.48428125,133.4453Q301.88628125,133.4453,304.41828125,132.4141L304.41828125,134.9922Q302.48428125,136,299.55428125000003,136ZM322.27728125,136L322.27728125,123.6016Q322.27728125,121.2578,321.19928125,120.1094Q320.13328125,118.94922,317.84728125000004,118.94922Q314.81228125,118.94922,313.40628125,120.6016Q312.01128125,122.2422,312.01128125,125.9805L312.01128125,136L309.09328125,136L309.09328125,109L312.01128125,109L312.01128125,117.0625Q312.01128125,118.51562,311.87128125,119.4766L312.04728124999997,119.4766Q312.91428125,118.09375,314.49628125000004,117.29688Q316.09028125,116.5,318.12928124999996,116.5Q321.66828125,116.5,323.42528125,118.17578Q325.19528125,119.8398,325.19528125,123.4844L325.19528125,136L322.27728125,136Z"
                      fill="#000000" fill-opacity="1"/>
            </g>
            <g style="mix-blend-mode:passthrough" filter="url(#master_svg2_9_06850/20_02589)">
                <path d="M229.5312,192L217.2188,192L197.34375,157.2031L197.0625,157.2031Q197.65625,166.4219,197.65625,170.3594L197.65625,192L189,192L189,146L201.2188,146L221.0625,180.4531L221.2812,180.4531Q220.8125,171.4844,220.8125,167.7656L220.8125,146L229.5312,146L229.5312,192ZM247.8438,174.4531Q247.8438,179.8281,249.5469,182.5938Q251.25,185.3438,255.0938,185.3438Q258.9062,185.3438,260.5781,182.6094Q262.25,179.8594,262.25,174.4531Q262.25,169.0625,260.5625,166.375Q258.875,163.6875,255.0312,163.6875Q251.2188,163.6875,249.5312,166.3594Q247.8438,169.0312,247.8438,174.4531ZM272,174.4531Q272,183.1719,267.5,188.0938Q263,193,254.9688,193Q249.9375,193,246.0938,190.75Q242.25,188.5,240.1875,184.2969Q238.125,180.0781,238.125,174.4531Q238.125,165.7031,242.5938,160.8594Q247.0625,156,255.1562,156Q260.1875,156,264.0312,158.2344Q267.875,160.4688,269.9375,164.6562Q272,168.8281,272,174.4531ZM294.969,185.4062Q297.469,185.4062,300.969,184.3125L300.969,191.4062Q297.406,193,292.219,193Q286.5,193,283.8906,190.0625Q281.2812,187.125,281.2812,181.2656L281.2812,164.1562L276.7188,164.1562L276.7188,160.125L281.9688,156.9375L284.7188,149.5625L290.812,149.5625L290.812,157L300.594,157L300.594,164.1562L290.812,164.1562L290.812,181.3594Q290.812,183.4219,291.953,184.4219Q293.094,185.4062,294.969,185.4062ZM322.719,162.7812Q319.688,162.7812,317.969,164.6719Q316.25,166.5469,316,170L329.375,170Q329.312,166.5469,327.531,164.6719Q325.75,162.7812,322.719,162.7812ZM324.062,193Q315.625,193,310.875,188.25Q306.125,183.4844,306.125,174.7656Q306.125,165.7969,310.516,160.9062Q314.906,156,322.656,156Q330.062,156,334.188,160.1875Q338.312,164.375,338.312,171.75L338.312,176.3438L315.781,176.3438Q315.938,180.8438,318.188,183.375Q320.438,185.9062,324.5,185.9062Q327.656,185.9062,330.469,185.1875Q333.281,184.4531,336.344,182.8594L336.344,190.4531Q333.844,191.75,331,192.375Q328.156,193,324.062,193ZM390.969,179.6875Q390.969,185.875,386.51599999999996,189.4375Q382.062,193,374.125,193Q366.812,193,361.188,190.25L361.188,181.25Q365.812,183.3125,369.01599999999996,184.1562Q372.219,185,374.875,185Q378.062,185,379.76599999999996,183.7812Q381.469,182.5625,381.469,180.1562Q381.469,178.8125,380.719,177.7656Q379.969,176.7188,378.51599999999996,175.75Q377.062,174.7656,372.594,172.6406Q368.406,170.6719,366.312,168.8594Q364.219,167.0469,362.969,164.6406Q361.719,162.2188,361.719,159Q361.719,152.9375,365.828,149.46875Q369.938,146,377.188,146Q380.75,146,383.98400000000004,146.84375Q387.219,147.6875,390.75,149.21875L387.625,156.75Q383.969,155.25,381.578,154.6562Q379.188,154.0625,376.875,154.0625Q374.125,154.0625,372.656,155.3438Q371.188,156.625,371.188,158.6875Q371.188,159.9688,371.781,160.9219Q372.375,161.875,373.672,162.7656Q374.969,163.6562,379.812,165.9844Q386.219,169.0469,388.594,172.1406Q390.969,175.2188,390.969,179.6875ZM430.5,192L420.969,192L420.969,171.2969Q420.969,163.625,415.344,163.625Q411.344,163.625,409.562,166.3906Q407.781,169.1406,407.781,175.3281L407.781,192L398.25,192L398.25,143L407.781,143L407.781,152.89062Q407.781,154.0469,407.562,158.3125L407.344,161.125L407.844,161.125Q411.031,156,417.969,156Q424.125,156,427.312,159.3594Q430.5,162.7031,430.5,168.9531L430.5,192ZM462.438,192L460.594,187.625L460.344,187.625Q457.938,190.6562,455.391,191.8281Q452.844,193,448.75,193Q443.719,193,440.828,190.0469Q437.938,187.0938,437.938,181.625Q437.938,175.9062,441.828,173.2031Q445.719,170.4844,453.562,170.1875L459.625,170L459.625,168.4531Q459.625,163.0625,454.188,163.0625Q450,163.0625,444.344,165.5938L441.188,159.1562Q447.219,156,454.562,156Q461.594,156,465.344,159.0938Q469.094,162.1875,469.094,168.5L469.094,192L462.438,192ZM459.625,175.5625L455.938,175.7031Q451.781,175.8281,449.75,177.2969Q447.719,178.75,447.719,181.75Q447.719,186.0312,452.344,186.0312Q455.656,186.0312,457.641,184.0156Q459.625,181.9844,459.625,178.625L459.625,175.5625ZM498.75,156Q500.688,156,501.969,156.2812L501.25,165.2188Q500.094,164.9062,498.438,164.9062Q493.875,164.9062,491.328,167.2969Q488.781,169.6719,488.781,173.9531L488.781,192L479.25,192L479.25,157L486.469,157L487.875,162.5312L488.344,162.5312Q489.969,159.5938,492.734,157.7969Q495.5,156,498.75,156ZM522.719,162.7812Q519.688,162.7812,517.969,164.6719Q516.25,166.5469,516,170L529.375,170Q529.312,166.5469,527.531,164.6719Q525.75,162.7812,522.719,162.7812ZM524.062,193Q515.625,193,510.875,188.25Q506.125,183.4844,506.125,174.7656Q506.125,165.7969,510.516,160.9062Q514.906,156,522.656,156Q530.062,156,534.188,160.1875Q538.312,164.375,538.312,171.75L538.312,176.3438L515.781,176.3438Q515.938,180.8438,518.188,183.375Q520.438,185.9062,524.5,185.9062Q527.656,185.9062,530.469,185.1875Q533.281,184.4531,536.344,182.8594L536.344,190.4531Q533.844,191.75,531,192.375Q528.156,193,524.062,193Z"
                      fill="#63BEFF" fill-opacity="1"/>
            </g>
        </g>
    </g>
</svg>