<svg xmlns="http://www.w3.org/2000/svg" fill="none" version="1.1" width="556"
     height="222.02142333984375" viewBox="0 0 556 222.02142333984375">
    <g style="mix-blend-mode:passthrough">
        <g style="mix-blend-mode:passthrough">
            <g style="mix-blend-mode:passthrough">
                <path d="M22.5,21.743896484375L36.184,21.743896484375L36.184,26.743896484375L22.5,26.743896484375Q19.162,26.743896484375,16.0583,27.972596484375Q12.6884,29.306716484375002,10.1256,31.869496484375Q7.56282,34.432296484375,6.2287,37.802196484375Q5,40.905896484375,5,44.243896484375L5,174.054896484375Q5,177.392896484375,6.2287,180.496896484375Q7.56282,183.866896484375,10.1256,186.429896484375Q12.6884,188.992896484375,16.0583,190.326896484375Q19.162,191.554896484375,22.5,191.554896484375L56.1031,191.554896484375L56.1031,196.554896484375L22.5,196.554896484375Q18.2082,196.554896484375,14.2179,194.975896484375Q9.88517,193.259896484375,6.5901,189.964896484375Q3.29504,186.669896484375,1.57976,182.337896484375Q0,178.346896484375,0,174.054896484375L0,44.243896484375Q0,39.952196484375,1.57976,35.961796484375Q3.29505,31.629036484375,6.5901,28.333996484375Q9.88515,25.038946484375,14.2179,23.323656484375Q18.2083,21.743896484375,22.5,21.743896484375ZM107.104,196.554896484375L124.574,196.554896484375Q128.866,196.554896484375,132.857,194.975896484375Q137.189,193.259896484375,140.484,189.964896484375Q143.779,186.669896484375,145.495,182.337896484375Q147.074,178.346896484375,147.074,174.054896484375L147.074,138.18689648437498L142.074,138.18689648437498L142.074,174.054896484375Q142.074,177.393896484375,140.846,180.496896484375Q139.512,183.866896484375,136.949,186.429896484375Q134.386,188.992896484375,131.016,190.326896484375Q127.912,191.554896484375,124.574,191.554896484375L107.104,191.554896484375L107.104,196.554896484375Z"
                      fill-rule="evenodd" fill="#000000" fill-opacity="1"/>
            </g>
            <g style="mix-blend-mode:passthrough">
                <path d="M46.2414514453125,45.6359C34.5357014453125,71.4963,36.0021914453125,86.399,51.7863314453125,97.9651C67.5704314453125,109.531,86.5954314453125,106.18,103.8459314453125,97.9651C121.0964314453125,89.7506,100.7654314453125,111.047,85.3632314453125,116.828C97.99303144531251,116.828,106.4062314453125,111.971,113.0872314453125,109.222C117.0321314453125,107.599,116.6674314453125,108.529,116.2620314453125,109.563C115.9808314453125,110.28,115.6799314453125,111.047,116.7838314453125,111.047C117.9052314453125,111.047,119.6399314453125,109.941,121.1503314453125,108.978C123.2701314453125,107.627,124.9481314453125,106.557,123.8688314453125,109.222C124.8987314453125,111.663,129.0269314453125,106.76,132.5247314453125,102.605C134.2583314453125,100.546,135.8370314453125,98.6708,136.8067314453125,97.9651C143.1502314453125,100.536,136.2079314453125,115.208,132.1861314453125,122C140.5032314453125,122,160.21823144531248,108.309,168.2272314453125,94.3142C176.2362314453125,80.3192,185.1702314453125,62.9776,171.3082314453125,45.6359C163.1972314453125,35.4899,155.7202314453125,38.4658,146.9622314453125,41.9511C140.7522314453125,44.4228,133.8975314453125,47.1508,125.7171314453125,45.6359C116.4758314453125,38.03,134.0343314453125,12.4738,151.59323144531248,0C121.0964314453125,5.17207,111.8551314453125,8.21446,96.7608314453125,15.8205C81.6666314453125,23.4264,93.9884314453125,10.9526,103.8459314453125,5.17207C83.2069314453125,9.43142,57.9472314453125,19.7756,46.2414514453125,45.6359Z"
                      fill="#FF9238" fill-opacity="1"/>
            </g>
            <g style="mix-blend-mode:passthrough"
               transform="matrix(0.9950668811798096,-0.09857118129730225,0.0995815098285675,0.9950929880142212,-10.593099128045651,6.44519397408294)">
                <path d="M60.95370005859375,132.40534208984374C59.79986505859375,137.27754208984373,59.84353685859375,139.73604208984375,60.07279905859375,152.64214208984376C60.08912205859375,153.56104208984374,60.10638605859375,154.53284208984374,60.12422505859375,155.56234208984375Q60.39262405859375,171.05074208984377,60.32498705859375,222.57664208984374Q97.82611005859374,183.54414208984375,107.99951005859376,171.82044208984377C118.17291005859374,160.09664208984375,118.88051005859376,159.04434208984375,121.29001005859375,154.24834208984376C120.64831005859375,154.24834208984376,120.05991005859374,154.21644208984375,119.51001005859375,154.18654208984375C117.30731005859374,154.06714208984374,115.72201005859375,153.98124208984376,113.79381005859375,156.11344208984374C112.12811005859375,157.95544208984376,106.19721005859375,163.30754208984376,101.47871005859375,168.90294208984375C96.76011005859375,174.49844208984376,90.17701005859375,179.64614208984375,88.30301005859374,180.57864208984375C84.55491005859375,182.44384208984377,84.85681005859375,177.37814208984375,85.58031005859375,175.48924208984374C86.30381005859375,173.60034208984376,95.05341005859376,150.51804208984376,98.53371005859375,147.05414208984377C100.60681005859375,144.99104208984375,108.85371005859375,144.91644208984374,115.80661005859375,144.85364208984376C120.52671005859375,144.81094208984376,124.65051005859375,144.77364208984375,125.84131005859375,144.12324208984376C127.71531005859374,141.72524208984376,130.12481005859377,139.06074208984376,131.46341005859375,132.66594208984375C128.34821005859374,133.33994208984376,120.23071005859376,133.19554208984374,112.65781005859375,133.06094208984376C105.26201005859375,132.92934208984374,98.38561005859376,132.80704208984375,97.19511005859374,133.46534208984374C95.86961005859375,134.19824208984375,87.84601005859375,154.33794208984375,80.71371005859375,172.24024208984375C74.88171005859375,186.87904208984375,69.64565005859374,200.02184208984374,69.15503005859375,199.83494208984376C68.67027005859376,199.65024208984374,73.49031005859375,186.69504208984375,78.90801005859375,172.13344208984375C85.67941005859375,153.93374208984375,93.38431005859374,133.22474208984374,92.83261005859376,131.80314208984376C91.83951005859375,129.24404208984376,70.90121005859375,114.29379208984375,67.02960005859374,109.34564208984375C64.17280005859375,114.67977208984375,64.07585005859374,118.14529208984375,63.99490005859375,121.03874208984375C63.98837005859375,121.27214208984375,63.98195005859375,121.50174208984375,63.97419005859375,121.72834208984375C65.20071005859376,124.84084208984375,82.61591005859376,136.50724208984374,83.05971005859375,141.38584208984375C83.50351005859375,146.26454208984376,75.23181005859375,168.66914208984375,73.88441005859374,171.38504208984375C72.53711005859375,174.10084208984375,70.26011005859375,178.29384208984374,68.58190005859375,174.47224208984375C67.74280005859374,172.56144208984375,66.76068005859375,163.59304208984375,66.73772005859375,156.28814208984375C66.71476005859375,148.98324208984374,65.60421005859375,141.09234208984375,65.51035005859374,138.61594208984374C65.37459005859375,135.03384208984374,63.420950058593746,134.45314208984377,60.95370005859375,132.40534208984374Z"
                      fill="#63BEFF" fill-opacity="1"/>
            </g>
        </g>
        <g style="mix-blend-mode:passthrough">
            <path d="M201.03518125,118.0625Q201.03518125,121.332,198.57418125,123.1719Q196.11328125,125,191.89453125,125Q187.32422125,125,184.86328125,123.8164L184.86328125,120.9336Q186.44531125,121.6016,188.30859125,121.9883Q190.17187125,122.375,192.00000125,122.375Q194.98828125,122.375,196.49998125,121.3086Q198.01168125,120.2422,198.01168125,118.332Q198.01168125,117.043,197.47268125,116.2227Q196.94528125,115.4023,195.67968125,114.7109Q194.42578125,114.0078,191.85937125,113.1289Q188.27344125,111.8867,186.73828125,110.1875Q185.20312525,108.4883,185.20312525,105.75781Q185.20312525,102.89844,187.42969125,101.19922Q189.66797125,99.5,193.34766125,99.5Q197.17968125,99.5,200.39058125,100.90625L199.46488125,103.50781Q196.27738125,102.17188,193.27734125,102.17188Q190.89844125,102.17188,189.56250125,103.13281Q188.22656125,104.09375,188.22656125,105.79297Q188.22656125,107.08203,188.71875125,107.90234Q189.21094125,108.7227,190.37109125,109.4141Q191.54297125,110.1055,193.95703125,110.9375Q197.99998125,112.3203,199.51168125,113.9258Q201.03518125,115.5195,201.03518125,118.0625ZM225.44528125,99.5L225.44528125,115.7773Q225.44528125,120.0781,222.78518125,122.5391Q220.13668125,125,215.49608125,125Q210.85548125,125,208.31248125,122.5273Q205.76948125,120.043,205.76948125,115.707L205.76948125,99.5L208.75778125,99.5L208.75778125,115.8711Q208.75778125,119.0117,210.51558125,120.6992Q212.27348125,122.375,215.68358125,122.375Q218.94138125,122.375,220.69918125,120.6875Q222.45708125,119,222.45708125,115.8359L222.45708125,99.5L225.44528125,99.5ZM246.78518125,118.0625Q246.78518125,121.332,244.32418125,123.1719Q241.86328125,125,237.64448125,125Q233.07418125,125,230.61328125,123.8164L230.61328125,120.9336Q232.19528125,121.6016,234.05858125,121.9883Q235.92188125,122.375,237.74998125,122.375Q240.73828125,122.375,242.24998125,121.3086Q243.76168125,120.2422,243.76168125,118.332Q243.76168125,117.043,243.22268125,116.2227Q242.69528125,115.4023,241.42968125,114.7109Q240.17578125,114.0078,237.60938125,113.1289Q234.02348125,111.8867,232.48828125,110.1875Q230.95308125,108.4883,230.95308125,105.75781Q230.95308125,102.89844,233.17968125,101.19922Q235.41798125,99.5,239.09768125,99.5Q242.92968125,99.5,246.14058125,100.90625L245.21488125,103.50781Q242.02738125,102.17188,239.02738125,102.17188Q236.64848125,102.17188,235.31248125,103.13281Q233.97658125,104.09375,233.97658125,105.79297Q233.97658125,107.08203,234.46878125,107.90234Q234.96098125,108.7227,236.12108125,109.4141Q237.29298125,110.1055,239.70708125,110.9375Q243.74998125,112.3203,245.26168125,113.9258Q246.78518125,115.5195,246.78518125,118.0625ZM259.69918125,125L256.71098125000003,125L256.71098125000003,102.16016L248.56638125,102.16016L248.56638125,99.5L267.83208125,99.5L267.83208125,102.16016L259.69918125,102.16016L259.69918125,125ZM279.73828125,125Q275.47268125,125,272.99998125,122.457Q270.52738125,119.9141,270.52738125,115.4023Q270.52738125,110.8555,272.81248125,108.1836Q275.10938125,105.5,278.97658125,105.5Q282.59768125,105.5,284.70708125,107.91406Q286.81628125,110.3164,286.81628125,114.2656L286.81628125,116.1289L273.55078125,116.1289Q273.64448125,119.2344,275.26168125,120.8398Q276.89058124999997,122.4453,279.84378125,122.4453Q282.96098125000003,122.4453,285.99628125,121.1445L285.99628125,123.7461Q284.44918125,124.4141,283.06638125,124.707Q281.69528125,125,279.73828125,125ZM278.94138125,107.94922Q276.62108125,107.94922,275.23828125,109.4961Q273.86718125,111.0312,273.62108125,113.75L283.68748125,113.75Q283.68748125,110.9375,282.45708125,109.4492Q281.22658125,107.94922,278.94138125,107.94922ZM299.55428125000003,125Q295.37128125,125,293.07428125,122.4922Q290.77728125,119.9727,290.77728125,115.3672Q290.77728125,110.6445,293.10928125,108.0781Q295.44128125,105.5,299.74228125,105.5Q301.13628125,105.5,302.51928125,105.80469Q303.91428125,106.09766,304.69928125,106.50781L303.80828125,108.9922Q302.83628125,108.6055,301.68728125,108.3477Q300.55128125,108.0898,299.67228124999997,108.0898Q293.80128125,108.0898,293.80128125,115.332Q293.80128125,118.7656,295.23028125,120.6055Q296.67228124999997,122.4453,299.48428125,122.4453Q301.88628125,122.4453,304.41828125,121.4141L304.41828125,123.9922Q302.48428125,125,299.55428125000003,125ZM322.27728125,125L322.27728125,112.6016Q322.27728125,110.2578,321.19928125,109.1094Q320.13328125,107.94922,317.84728125000004,107.94922Q314.81228125,107.94922,313.40628125,109.6016Q312.01128125,111.2422,312.01128125,114.9805L312.01128125,125L309.09328125,125L309.09328125,98L312.01128125,98L312.01128125,106.0625Q312.01128125,107.51562,311.87128125,108.4766L312.04728124999997,108.4766Q312.91428125,107.09375,314.49628125000004,106.29688Q316.09028125,105.5,318.12928124999996,105.5Q321.66828125,105.5,323.42528125,107.17578Q325.19528125,108.8398,325.19528125,112.4844L325.19528125,125L322.27728125,125Z"
                  fill="#000000" fill-opacity="1"/>
        </g>
        <g style="mix-blend-mode:passthrough">
            <path d="M229.5312,181L217.2188,181L197.34375,146.2031L197.0625,146.2031Q197.65625,155.4219,197.65625,159.3594L197.65625,181L189,181L189,135L201.2188,135L221.0625,169.4531L221.2812,169.4531Q220.8125,160.4844,220.8125,156.7656L220.8125,135L229.5312,135L229.5312,181ZM247.8438,163.4531Q247.8438,168.8281,249.5469,171.5938Q251.25,174.3438,255.0938,174.3438Q258.9062,174.3438,260.5781,171.6094Q262.25,168.8594,262.25,163.4531Q262.25,158.0625,260.5625,155.375Q258.875,152.6875,255.0312,152.6875Q251.2188,152.6875,249.5312,155.3594Q247.8438,158.0312,247.8438,163.4531ZM272,163.4531Q272,172.1719,267.5,177.0938Q263,182,254.9688,182Q249.9375,182,246.0938,179.75Q242.25,177.5,240.1875,173.2969Q238.125,169.0781,238.125,163.4531Q238.125,154.7031,242.5938,149.8594Q247.0625,145,255.1562,145Q260.1875,145,264.0312,147.2344Q267.875,149.4688,269.9375,153.6562Q272,157.8281,272,163.4531ZM294.969,174.4062Q297.469,174.4062,300.969,173.3125L300.969,180.4062Q297.406,182,292.219,182Q286.5,182,283.8906,179.0625Q281.2812,176.125,281.2812,170.2656L281.2812,153.1562L276.7188,153.1562L276.7188,149.125L281.9688,145.9375L284.7188,138.5625L290.812,138.5625L290.812,146L300.594,146L300.594,153.1562L290.812,153.1562L290.812,170.3594Q290.812,172.4219,291.953,173.4219Q293.094,174.4062,294.969,174.4062ZM322.719,151.7812Q319.688,151.7812,317.969,153.6719Q316.25,155.5469,316,159L329.375,159Q329.312,155.5469,327.531,153.6719Q325.75,151.7812,322.719,151.7812ZM324.062,182Q315.625,182,310.875,177.25Q306.125,172.4844,306.125,163.7656Q306.125,154.7969,310.516,149.9062Q314.906,145,322.656,145Q330.062,145,334.188,149.1875Q338.312,153.375,338.312,160.75L338.312,165.3438L315.781,165.3438Q315.938,169.8438,318.188,172.375Q320.438,174.9062,324.5,174.9062Q327.656,174.9062,330.469,174.1875Q333.281,173.4531,336.344,171.8594L336.344,179.4531Q333.844,180.75,331,181.375Q328.156,182,324.062,182ZM390.969,168.6875Q390.969,174.875,386.51599999999996,178.4375Q382.062,182,374.125,182Q366.812,182,361.188,179.25L361.188,170.25Q365.812,172.3125,369.01599999999996,173.1562Q372.219,174,374.875,174Q378.062,174,379.76599999999996,172.7812Q381.469,171.5625,381.469,169.1562Q381.469,167.8125,380.719,166.7656Q379.969,165.7188,378.51599999999996,164.75Q377.062,163.7656,372.594,161.6406Q368.406,159.6719,366.312,157.8594Q364.219,156.0469,362.969,153.6406Q361.719,151.2188,361.719,148Q361.719,141.9375,365.828,138.46875Q369.938,135,377.188,135Q380.75,135,383.98400000000004,135.84375Q387.219,136.6875,390.75,138.21875L387.625,145.75Q383.969,144.25,381.578,143.6562Q379.188,143.0625,376.875,143.0625Q374.125,143.0625,372.656,144.3438Q371.188,145.625,371.188,147.6875Q371.188,148.9688,371.781,149.9219Q372.375,150.875,373.672,151.7656Q374.969,152.6562,379.812,154.9844Q386.219,158.0469,388.594,161.1406Q390.969,164.2188,390.969,168.6875ZM430.5,181L420.969,181L420.969,160.2969Q420.969,152.625,415.344,152.625Q411.344,152.625,409.562,155.3906Q407.781,158.1406,407.781,164.3281L407.781,181L398.25,181L398.25,132L407.781,132L407.781,141.89062Q407.781,143.0469,407.562,147.3125L407.344,150.125L407.844,150.125Q411.031,145,417.969,145Q424.125,145,427.312,148.3594Q430.5,151.7031,430.5,157.9531L430.5,181ZM462.438,181L460.594,176.625L460.344,176.625Q457.938,179.6562,455.391,180.8281Q452.844,182,448.75,182Q443.719,182,440.828,179.0469Q437.938,176.0938,437.938,170.625Q437.938,164.9062,441.828,162.2031Q445.719,159.4844,453.562,159.1875L459.625,159L459.625,157.4531Q459.625,152.0625,454.188,152.0625Q450,152.0625,444.344,154.5938L441.188,148.1562Q447.219,145,454.562,145Q461.594,145,465.344,148.0938Q469.094,151.1875,469.094,157.5L469.094,181L462.438,181ZM459.625,164.5625L455.938,164.7031Q451.781,164.8281,449.75,166.2969Q447.719,167.75,447.719,170.75Q447.719,175.0312,452.344,175.0312Q455.656,175.0312,457.641,173.0156Q459.625,170.9844,459.625,167.625L459.625,164.5625ZM498.75,145Q500.688,145,501.969,145.2812L501.25,154.2188Q500.094,153.9062,498.438,153.9062Q493.875,153.9062,491.328,156.2969Q488.781,158.6719,488.781,162.9531L488.781,181L479.25,181L479.25,146L486.469,146L487.875,151.5312L488.344,151.5312Q489.969,148.5938,492.734,146.7969Q495.5,145,498.75,145ZM522.719,151.7812Q519.688,151.7812,517.969,153.6719Q516.25,155.5469,516,159L529.375,159Q529.312,155.5469,527.531,153.6719Q525.75,151.7812,522.719,151.7812ZM524.062,182Q515.625,182,510.875,177.25Q506.125,172.4844,506.125,163.7656Q506.125,154.7969,510.516,149.9062Q514.906,145,522.656,145Q530.062,145,534.188,149.1875Q538.312,153.375,538.312,160.75L538.312,165.3438L515.781,165.3438Q515.938,169.8438,518.188,172.375Q520.438,174.9062,524.5,174.9062Q527.656,174.9062,530.469,174.1875Q533.281,173.4531,536.344,171.8594L536.344,179.4531Q533.844,180.75,531,181.375Q528.156,182,524.062,182Z"
                  fill="#63BEFF" fill-opacity="1"/>
        </g>
    </g>
</svg>